<svg width="48" height="48" fill="none" xmlns="http://www.w3.org/2000/svg"><path fill="#fff" fill-opacity=".15" d="M.25 0h1v2h-1zM4.25 0h1v2h-1zM8.25 0h1v2h-1zM12.25 0h1v2h-1zM16.25 0h1v2h-1zM20.25 0h1v2h-1zM24.25 0h1v2h-1zM28.25 0h1v2h-1zM32.25 0h1v2h-1zM36.25 0h1v2h-1zM40.25 0h1v2h-1zM44.25 0h1v2h-1zM2.25 2h1v2h-1zM6.25 2h1v2h-1zM10.25 2h1v2h-1zM14.25 2h1v2h-1zM18.25 2h1v2h-1zM22.25 2h1v2h-1zM26.25 2h1v2h-1zM30.25 2h1v2h-1zM34.25 2h1v2h-1zM38.25 2h1v2h-1zM42.25 2h1v2h-1zM46.25 2h1v2h-1zM.25 4h1v2h-1zM4.25 4h1v2h-1zM8.25 4h1v2h-1zM12.25 4h1v2h-1zM16.25 4h1v2h-1zM20.25 4h1v2h-1zM24.25 4h1v2h-1zM28.25 4h1v2h-1zM32.25 4h1v2h-1zM36.25 4h1v2h-1zM40.25 4h1v2h-1zM44.25 4h1v2h-1zM2.25 6h1v2h-1zM6.25 6h1v2h-1zM10.25 6h1v2h-1zM14.25 6h1v2h-1zM18.25 6h1v2h-1zM22.25 6h1v2h-1zM26.25 6h1v2h-1zM30.25 6h1v2h-1zM34.25 6h1v2h-1zM38.25 6h1v2h-1zM42.25 6h1v2h-1zM46.25 6h1v2h-1zM.25 8h1v2h-1zM4.25 8h1v2h-1zM8.25 8h1v2h-1zM12.25 8h1v2h-1zM16.25 8h1v2h-1zM20.25 8h1v2h-1zM24.25 8h1v2h-1zM28.25 8h1v2h-1zM32.25 8h1v2h-1zM36.25 8h1v2h-1zM40.25 8h1v2h-1zM44.25 8h1v2h-1zM2.25 10h1v2h-1zM6.25 10h1v2h-1zM10.25 10h1v2h-1zM14.25 10h1v2h-1zM18.25 10h1v2h-1zM22.25 10h1v2h-1zM26.25 10h1v2h-1zM30.25 10h1v2h-1zM34.25 10h1v2h-1zM38.25 10h1v2h-1zM42.25 10h1v2h-1zM46.25 10h1v2h-1zM.25 12h1v2h-1zM4.25 12h1v2h-1zM8.25 12h1v2h-1zM12.25 12h1v2h-1zM16.25 12h1v2h-1zM20.25 12h1v2h-1zM24.25 12h1v2h-1zM28.25 12h1v2h-1zM32.25 12h1v2h-1zM36.25 12h1v2h-1zM40.25 12h1v2h-1zM44.25 12h1v2h-1zM2.25 14h1v2h-1zM6.25 14h1v2h-1zM10.25 14h1v2h-1zM14.25 14h1v2h-1zM18.25 14h1v2h-1zM22.25 14h1v2h-1zM26.25 14h1v2h-1zM30.25 14h1v2h-1zM34.25 14h1v2h-1zM38.25 14h1v2h-1zM42.25 14h1v2h-1zM46.25 14h1v2h-1zM.25 16h1v2h-1zM4.25 16h1v2h-1zM8.25 16h1v2h-1zM12.25 16h1v2h-1zM16.25 16h1v2h-1zM20.25 16h1v2h-1zM24.25 16h1v2h-1zM28.25 16h1v2h-1zM32.25 16h1v2h-1zM36.25 16h1v2h-1zM40.25 16h1v2h-1zM44.25 16h1v2h-1zM2.25 18h1v2h-1zM6.25 18h1v2h-1zM10.25 18h1v2h-1zM14.25 18h1v2h-1zM18.25 18h1v2h-1zM22.25 18h1v2h-1zM26.25 18h1v2h-1zM30.25 18h1v2h-1zM34.25 18h1v2h-1zM38.25 18h1v2h-1zM42.25 18h1v2h-1zM46.25 18h1v2h-1zM.25 20h1v2h-1zM4.25 20h1v2h-1zM8.25 20h1v2h-1zM12.25 20h1v2h-1zM16.25 20h1v2h-1zM20.25 20h1v2h-1zM24.25 20h1v2h-1zM28.25 20h1v2h-1zM32.25 20h1v2h-1zM36.25 20h1v2h-1zM40.25 20h1v2h-1zM44.25 20h1v2h-1zM2.25 22h1v2h-1zM6.25 22h1v2h-1zM10.25 22h1v2h-1zM14.25 22h1v2h-1zM18.25 22h1v2h-1zM22.25 22h1v2h-1zM26.25 22h1v2h-1zM30.25 22h1v2h-1zM34.25 22h1v2h-1zM38.25 22h1v2h-1zM42.25 22h1v2h-1zM46.25 22h1v2h-1zM.25 24h1v2h-1zM4.25 24h1v2h-1zM8.25 24h1v2h-1zM12.25 24h1v2h-1zM16.25 24h1v2h-1zM20.25 24h1v2h-1zM24.25 24h1v2h-1zM28.25 24h1v2h-1zM32.25 24h1v2h-1zM36.25 24h1v2h-1zM40.25 24h1v2h-1zM44.25 24h1v2h-1zM2.25 26h1v2h-1zM6.25 26h1v2h-1zM10.25 26h1v2h-1zM14.25 26h1v2h-1zM18.25 26h1v2h-1zM22.25 26h1v2h-1zM26.25 26h1v2h-1zM30.25 26h1v2h-1zM34.25 26h1v2h-1zM38.25 26h1v2h-1zM42.25 26h1v2h-1zM46.25 26h1v2h-1zM.25 28h1v2h-1zM4.25 28h1v2h-1zM8.25 28h1v2h-1zM12.25 28h1v2h-1zM16.25 28h1v2h-1zM20.25 28h1v2h-1zM24.25 28h1v2h-1zM28.25 28h1v2h-1zM32.25 28h1v2h-1zM36.25 28h1v2h-1zM40.25 28h1v2h-1zM44.25 28h1v2h-1zM2.25 30h1v2h-1zM6.25 30h1v2h-1zM10.25 30h1v2h-1zM14.25 30h1v2h-1zM18.25 30h1v2h-1zM22.25 30h1v2h-1zM26.25 30h1v2h-1zM30.25 30h1v2h-1zM34.25 30h1v2h-1zM38.25 30h1v2h-1zM42.25 30h1v2h-1zM46.25 30h1v2h-1zM.25 32h1v2h-1zM4.25 32h1v2h-1zM8.25 32h1v2h-1zM12.25 32h1v2h-1zM16.25 32h1v2h-1zM20.25 32h1v2h-1zM24.25 32h1v2h-1zM28.25 32h1v2h-1zM32.25 32h1v2h-1zM36.25 32h1v2h-1zM40.25 32h1v2h-1zM44.25 32h1v2h-1zM2.25 34h1v2h-1zM6.25 34h1v2h-1zM10.25 34h1v2h-1zM14.25 34h1v2h-1zM18.25 34h1v2h-1zM22.25 34h1v2h-1zM26.25 34h1v2h-1zM30.25 34h1v2h-1zM34.25 34h1v2h-1zM38.25 34h1v2h-1zM42.25 34h1v2h-1zM46.25 34h1v2h-1zM.25 36h1v2h-1zM4.25 36h1v2h-1zM8.25 36h1v2h-1zM12.25 36h1v2h-1zM16.25 36h1v2h-1zM20.25 36h1v2h-1zM24.25 36h1v2h-1zM28.25 36h1v2h-1zM32.25 36h1v2h-1zM36.25 36h1v2h-1zM40.25 36h1v2h-1zM44.25 36h1v2h-1zM2.25 38h1v2h-1zM6.25 38h1v2h-1zM10.25 38h1v2h-1zM14.25 38h1v2h-1zM18.25 38h1v2h-1zM22.25 38h1v2h-1zM26.25 38h1v2h-1zM30.25 38h1v2h-1zM34.25 38h1v2h-1zM38.25 38h1v2h-1zM42.25 38h1v2h-1zM46.25 38h1v2h-1zM.25 40h1v2h-1zM4.25 40h1v2h-1zM8.25 40h1v2h-1zM12.25 40h1v2h-1zM16.25 40h1v2h-1zM20.25 40h1v2h-1zM24.25 40h1v2h-1zM28.25 40h1v2h-1zM32.25 40h1v2h-1zM36.25 40h1v2h-1zM40.25 40h1v2h-1zM44.25 40h1v2h-1zM2.25 42h1v2h-1zM6.25 42h1v2h-1zM10.25 42h1v2h-1zM14.25 42h1v2h-1zM18.25 42h1v2h-1zM22.25 42h1v2h-1zM26.25 42h1v2h-1zM30.25 42h1v2h-1zM34.25 42h1v2h-1zM38.25 42h1v2h-1zM42.25 42h1v2h-1zM46.25 42h1v2h-1zM.25 44h1v2h-1zM4.25 44h1v2h-1zM8.25 44h1v2h-1zM12.25 44h1v2h-1zM16.25 44h1v2h-1zM20.25 44h1v2h-1zM24.25 44h1v2h-1zM28.25 44h1v2h-1zM32.25 44h1v2h-1zM36.25 44h1v2h-1zM40.25 44h1v2h-1zM44.25 44h1v2h-1zM2.25 46h1v2h-1zM6.25 46h1v2h-1zM10.25 46h1v2h-1zM14.25 46h1v2h-1zM18.25 46h1v2h-1zM22.25 46h1v2h-1zM26.25 46h1v2h-1zM30.25 46h1v2h-1zM34.25 46h1v2h-1zM38.25 46h1v2h-1zM42.25 46h1v2h-1zM46.25 46h1v2h-1z"/></svg>