<svg width="26" height="39" fill="none" xmlns="http://www.w3.org/2000/svg"><path class="main-bg-svg" opacity=".8" d="M6.545 38.375c3.45 0 6.25-2.8 6.25-6.25v-6.25h-6.25c-3.45 0-6.25 2.8-6.25 6.25s2.8 6.25 6.25 6.25Z"/><path class="main-bg-svg" opacity=".5" d="M.295 19.625c0-3.45 2.8-6.25 6.25-6.25h6.25v12.5h-6.25c-3.45 0-6.25-2.8-6.25-6.25Z"/><path class="main-bg-svg" d="M.295 7.125c0-3.45 2.8-6.25 6.25-6.25h6.25v12.5h-6.25c-3.45 0-6.25-2.8-6.25-6.25Z"/><path class="main-bg-svg" opacity=".5" d="M12.795.875h6.25c3.45 0 6.25 2.8 6.25 6.25s-2.8 6.25-6.25 6.25h-6.25V.875Z"/><path class="main-bg-svg" opacity=".8" d="M25.295 19.625c0 3.45-2.8 6.25-6.25 6.25s-6.25-2.8-6.25-6.25 2.8-6.25 6.25-6.25 6.25 2.8 6.25 6.25Z"/></svg>