<svg width="39" height="34" fill="none" xmlns="http://www.w3.org/2000/svg"><path class="color-svg" d="M0 5.855h9.118v2.682H0V5.855Zm0-4.98h9.118v2.682H0V.875Zm16.359 9.922H0v2.682h15.746c1.724 0 5.746.038 7.24 2.452v-1.494c-.728-2.375-2.873-3.64-6.628-3.64Zm.038 4.98H0v2.682h15.746c3.83 0 6.244.154 7.24.69v-1.188c-.766-1.877-3.984-2.183-6.59-2.183Zm-.038 12.643H0v-2.682h15.746c1.724 0 5.746-.038 7.24-2.451v1.494c-.728 2.375-2.873 3.64-6.628 3.64Zm.038-4.98H0v-2.682h15.746c3.83 0 6.244-.153 7.24-.69v1.188c-.766 1.877-3.984 2.184-6.59 2.184Zm10.574 9.616H39v-1.648H27.315c-1.034 0-3.486-.038-4.367-1.456v.92c.421 1.417 1.724 2.184 4.023 2.184Zm-.039-3.027h12.03v-1.647H27.315c-2.337 0-3.793-.077-4.367-.422v.728c.46 1.15 2.413 1.341 3.984 1.341Z" /></svg>