<svg width="48" height="48" fill="none" xmlns="http://www.w3.org/2000/svg"><path fill="#000" fill-opacity=".15" d="M0 0h1v2H0zM4 0h1v2H4zM8 0h1v2H8zM12 0h1v2h-1zM16 0h1v2h-1zM20 0h1v2h-1zM24 0h1v2h-1zM28 0h1v2h-1zM32 0h1v2h-1zM36 0h1v2h-1zM40 0h1v2h-1zM44 0h1v2h-1zM2 2h1v2H2zM6 2h1v2H6zM10 2h1v2h-1zM14 2h1v2h-1zM18 2h1v2h-1zM22 2h1v2h-1zM26 2h1v2h-1zM30 2h1v2h-1zM34 2h1v2h-1zM38 2h1v2h-1zM42 2h1v2h-1zM46 2h1v2h-1zM0 4h1v2H0zM4 4h1v2H4zM8 4h1v2H8zM12 4h1v2h-1zM16 4h1v2h-1zM20 4h1v2h-1zM24 4h1v2h-1zM28 4h1v2h-1zM32 4h1v2h-1zM36 4h1v2h-1zM40 4h1v2h-1zM44 4h1v2h-1zM2 6h1v2H2zM6 6h1v2H6zM10 6h1v2h-1zM14 6h1v2h-1zM18 6h1v2h-1zM22 6h1v2h-1zM26 6h1v2h-1zM30 6h1v2h-1zM34 6h1v2h-1zM38 6h1v2h-1zM42 6h1v2h-1zM46 6h1v2h-1zM0 8h1v2H0zM4 8h1v2H4zM8 8h1v2H8zM12 8h1v2h-1zM16 8h1v2h-1zM20 8h1v2h-1zM24 8h1v2h-1zM28 8h1v2h-1zM32 8h1v2h-1zM36 8h1v2h-1zM40 8h1v2h-1zM44 8h1v2h-1zM2 10h1v2H2zM6 10h1v2H6zM10 10h1v2h-1zM14 10h1v2h-1zM18 10h1v2h-1zM22 10h1v2h-1zM26 10h1v2h-1zM30 10h1v2h-1zM34 10h1v2h-1zM38 10h1v2h-1zM42 10h1v2h-1zM46 10h1v2h-1zM0 12h1v2H0zM4 12h1v2H4zM8 12h1v2H8zM12 12h1v2h-1zM16 12h1v2h-1zM20 12h1v2h-1zM24 12h1v2h-1zM28 12h1v2h-1zM32 12h1v2h-1zM36 12h1v2h-1zM40 12h1v2h-1zM44 12h1v2h-1zM2 14h1v2H2zM6 14h1v2H6zM10 14h1v2h-1zM14 14h1v2h-1zM18 14h1v2h-1zM22 14h1v2h-1zM26 14h1v2h-1zM30 14h1v2h-1zM34 14h1v2h-1zM38 14h1v2h-1zM42 14h1v2h-1zM46 14h1v2h-1zM0 16h1v2H0zM4 16h1v2H4zM8 16h1v2H8zM12 16h1v2h-1zM16 16h1v2h-1zM20 16h1v2h-1zM24 16h1v2h-1zM28 16h1v2h-1zM32 16h1v2h-1zM36 16h1v2h-1zM40 16h1v2h-1zM44 16h1v2h-1zM2 18h1v2H2zM6 18h1v2H6zM10 18h1v2h-1zM14 18h1v2h-1zM18 18h1v2h-1zM22 18h1v2h-1zM26 18h1v2h-1zM30 18h1v2h-1zM34 18h1v2h-1zM38 18h1v2h-1zM42 18h1v2h-1zM46 18h1v2h-1zM0 20h1v2H0zM4 20h1v2H4zM8 20h1v2H8zM12 20h1v2h-1zM16 20h1v2h-1zM20 20h1v2h-1zM24 20h1v2h-1zM28 20h1v2h-1zM32 20h1v2h-1zM36 20h1v2h-1zM40 20h1v2h-1zM44 20h1v2h-1zM2 22h1v2H2zM6 22h1v2H6zM10 22h1v2h-1zM14 22h1v2h-1zM18 22h1v2h-1zM22 22h1v2h-1zM26 22h1v2h-1zM30 22h1v2h-1zM34 22h1v2h-1zM38 22h1v2h-1zM42 22h1v2h-1zM46 22h1v2h-1zM0 24h1v2H0zM4 24h1v2H4zM8 24h1v2H8zM12 24h1v2h-1zM16 24h1v2h-1zM20 24h1v2h-1zM24 24h1v2h-1zM28 24h1v2h-1zM32 24h1v2h-1zM36 24h1v2h-1zM40 24h1v2h-1zM44 24h1v2h-1zM2 26h1v2H2zM6 26h1v2H6zM10 26h1v2h-1zM14 26h1v2h-1zM18 26h1v2h-1zM22 26h1v2h-1zM26 26h1v2h-1zM30 26h1v2h-1zM34 26h1v2h-1zM38 26h1v2h-1zM42 26h1v2h-1zM46 26h1v2h-1zM0 28h1v2H0zM4 28h1v2H4zM8 28h1v2H8zM12 28h1v2h-1zM16 28h1v2h-1zM20 28h1v2h-1zM24 28h1v2h-1zM28 28h1v2h-1zM32 28h1v2h-1zM36 28h1v2h-1zM40 28h1v2h-1zM44 28h1v2h-1zM2 30h1v2H2zM6 30h1v2H6zM10 30h1v2h-1zM14 30h1v2h-1zM18 30h1v2h-1zM22 30h1v2h-1zM26 30h1v2h-1zM30 30h1v2h-1zM34 30h1v2h-1zM38 30h1v2h-1zM42 30h1v2h-1zM46 30h1v2h-1zM0 32h1v2H0zM4 32h1v2H4zM8 32h1v2H8zM12 32h1v2h-1zM16 32h1v2h-1zM20 32h1v2h-1zM24 32h1v2h-1zM28 32h1v2h-1zM32 32h1v2h-1zM36 32h1v2h-1zM40 32h1v2h-1zM44 32h1v2h-1zM2 34h1v2H2zM6 34h1v2H6zM10 34h1v2h-1zM14 34h1v2h-1zM18 34h1v2h-1zM22 34h1v2h-1zM26 34h1v2h-1zM30 34h1v2h-1zM34 34h1v2h-1zM38 34h1v2h-1zM42 34h1v2h-1zM46 34h1v2h-1zM0 36h1v2H0zM4 36h1v2H4zM8 36h1v2H8zM12 36h1v2h-1zM16 36h1v2h-1zM20 36h1v2h-1zM24 36h1v2h-1zM28 36h1v2h-1zM32 36h1v2h-1zM36 36h1v2h-1zM40 36h1v2h-1zM44 36h1v2h-1zM2 38h1v2H2zM6 38h1v2H6zM10 38h1v2h-1zM14 38h1v2h-1zM18 38h1v2h-1zM22 38h1v2h-1zM26 38h1v2h-1zM30 38h1v2h-1zM34 38h1v2h-1zM38 38h1v2h-1zM42 38h1v2h-1zM46 38h1v2h-1zM0 40h1v2H0zM4 40h1v2H4zM8 40h1v2H8zM12 40h1v2h-1zM16 40h1v2h-1zM20 40h1v2h-1zM24 40h1v2h-1zM28 40h1v2h-1zM32 40h1v2h-1zM36 40h1v2h-1zM40 40h1v2h-1zM44 40h1v2h-1zM2 42h1v2H2zM6 42h1v2H6zM10 42h1v2h-1zM14 42h1v2h-1zM18 42h1v2h-1zM22 42h1v2h-1zM26 42h1v2h-1zM30 42h1v2h-1zM34 42h1v2h-1zM38 42h1v2h-1zM42 42h1v2h-1zM46 42h1v2h-1zM0 44h1v2H0zM4 44h1v2H4zM8 44h1v2H8zM12 44h1v2h-1zM16 44h1v2h-1zM20 44h1v2h-1zM24 44h1v2h-1zM28 44h1v2h-1zM32 44h1v2h-1zM36 44h1v2h-1zM40 44h1v2h-1zM44 44h1v2h-1zM2 46h1v2H2zM6 46h1v2H6zM10 46h1v2h-1zM14 46h1v2h-1zM18 46h1v2h-1zM22 46h1v2h-1zM26 46h1v2h-1zM30 46h1v2h-1zM34 46h1v2h-1zM38 46h1v2h-1zM42 46h1v2h-1zM46 46h1v2h-1z"/></svg>