<svg width="672" height="496" viewBox="0 0 672 496" fill="none" xmlns="http://www.w3.org/2000/svg">
<path d="M1.105 9.113V8.307H6.695V9.113H1.105ZM8.89992 9.113V8.307H14.4899V9.113H8.89992ZM16.6948 9.113V8.307H22.2848V9.113H16.6948ZM24.4898 9.113V8.307H30.0798V9.113H24.4898ZM32.2847 9.113V8.307H37.8747V9.113H32.2847ZM40.0796 9.113V8.307H45.6696V9.113H40.0796ZM47.8745 9.113V8.307H53.4645V9.113H47.8745ZM55.6695 9.113V8.307H61.2595V9.113H55.6695ZM63.4644 9.113V8.307H69.0544V9.113H63.4644ZM71.2593 9.113V8.307H76.8493V9.113H71.2593ZM79.0542 9.113V8.307H84.6442V9.113H79.0542ZM86.8491 9.113V8.307H92.4391V9.113H86.8491ZM94.6441 9.113V8.307H100.234V9.113H94.6441ZM102.439 9.113V8.307H108.029V9.113H102.439ZM110.234 9.113V8.307H115.824V9.113H110.234ZM118.029 9.113V8.307H123.619V9.113H118.029ZM125.824 9.113V8.307H131.414V9.113H125.824ZM133.619 9.113V8.307H139.209V9.113H133.619ZM141.414 9.113V8.307H147.004V9.113H141.414ZM149.209 9.113V8.307H154.799V9.113H149.209ZM157.003 9.113V8.307H162.593V9.113H157.003ZM164.798 9.113V8.307H170.388V9.113H164.798ZM172.593 9.113V8.307H178.183V9.113H172.593ZM180.388 9.113V8.307H185.978V9.113H180.388ZM188.183 9.113V8.307H193.773V9.113H188.183ZM195.978 9.113V8.307H201.568V9.113H195.978ZM203.773 9.113V8.307H209.363V9.113H203.773ZM211.568 9.113V8.307H217.158V9.113H211.568ZM219.363 9.113V8.307H224.953V9.113H219.363ZM227.158 9.113V8.307H232.748V9.113H227.158ZM234.953 9.113V8.307H240.543V9.113H234.953ZM242.748 9.113V8.307H248.338V9.113H242.748ZM250.543 9.113V8.307H256.133V9.113H250.543ZM258.337 9.113V8.307H263.927V9.113H258.337ZM266.132 9.113V8.307H271.722V9.113H266.132ZM273.927 9.113V8.307H279.517V9.113H273.927ZM281.722 9.113V8.307H287.312V9.113H281.722ZM289.517 9.113V8.307H295.107V9.113H289.517ZM297.312 9.113V8.307H302.902V9.113H297.312ZM305.107 9.113V8.307H310.697V9.113H305.107ZM312.902 9.113V8.307H318.492V9.113H312.902ZM320.697 9.113V8.307H326.287V9.113H320.697ZM328.492 9.113V8.307H334.082V9.113H328.492ZM336.287 9.113V8.307H341.877V9.113H336.287ZM344.082 9.113V8.307H349.672V9.113H344.082ZM351.876 9.113V8.307H357.466V9.113H351.876ZM359.671 9.113V8.307H365.261V9.113H359.671ZM367.466 9.113V8.307H373.056V9.113H367.466ZM375.261 9.113V8.307H380.851V9.113H375.261ZM383.056 9.113V8.307H388.646V9.113H383.056ZM390.851 9.113V8.307H396.441V9.113H390.851ZM398.646 9.113V8.307H404.236V9.113H398.646ZM406.441 9.113V8.307H412.031V9.113H406.441ZM414.236 9.113V8.307H419.826V9.113H414.236ZM422.031 9.113V8.307H427.621V9.113H422.031ZM429.826 9.113V8.307H435.416V9.113H429.826ZM437.621 9.113V8.307H443.211V9.113H437.621ZM445.416 9.113V8.307H451.006V9.113H445.416ZM453.21 9.113V8.307H458.8V9.113H453.21ZM461.005 9.113V8.307H466.595V9.113H461.005ZM468.8 9.113V8.307H474.39V9.113H468.8ZM476.595 9.113V8.307H482.185V9.113H476.595ZM484.39 9.113V8.307H489.98V9.113H484.39ZM492.185 9.113V8.307H497.775V9.113H492.185ZM499.98 9.113V8.307H505.57V9.113H499.98ZM507.775 9.113V8.307H513.365V9.113H507.775ZM515.57 9.113V8.307H521.16V9.113H515.57ZM523.365 9.113V8.307H528.955V9.113H523.365ZM531.16 9.113V8.307H536.75V9.113H531.16ZM538.955 9.113V8.307H544.545V9.113H538.955ZM546.75 9.113V8.307H552.34V9.113H546.75ZM554.544 9.113V8.307H560.134V9.113H554.544ZM562.339 9.113V8.307H567.929V9.113H562.339ZM570.134 9.113V8.307H575.724V9.113H570.134ZM577.929 9.113V8.307H583.519V9.113H577.929ZM585.724 9.113V8.307H591.314V9.113H585.724ZM593.519 9.113V8.307H599.109V9.113H593.519ZM601.314 9.113V8.307H606.904V9.113H601.314ZM609.109 9.113V8.307H614.699V9.113H609.109ZM616.904 9.113V8.307H622.494V9.113H616.904ZM624.699 9.113V8.307H630.289V9.113H624.699ZM632.494 9.113V8.307H638.084V9.113H632.494ZM640.289 9.113V8.307H645.879V9.113H640.289ZM648.084 9.113V8.307H653.674V9.113H648.084ZM655.878 9.113V8.307H661.468V9.113H655.878ZM663.673 9.113V8.307H669.263V9.113H663.673Z" fill="black" fill-opacity="0.2"/>
<path d="M3.419 32.25V19.25H4.381V32.25H3.419Z" fill="black" fill-opacity="0.2"/>
<path d="M667.419 32.25V19.25H668.381V32.25H667.419Z" fill="black" fill-opacity="0.2"/>
<path d="M3.419 48.25V35.25H4.381V48.25H3.419Z" fill="black" fill-opacity="0.2"/>
<path d="M667.419 48.25V35.25H668.381V48.25H667.419Z" fill="black" fill-opacity="0.2"/>
<path d="M3.419 64.25V51.25H4.381V64.25H3.419Z" fill="black" fill-opacity="0.2"/>
<path d="M667.419 64.25V51.25H668.381V64.25H667.419Z" fill="black" fill-opacity="0.2"/>
<path d="M3.419 80.25V67.25H4.381V80.25H3.419Z" fill="black" fill-opacity="0.2"/>
<path d="M667.419 80.25V67.25H668.381V80.25H667.419Z" fill="black" fill-opacity="0.2"/>
<path d="M3.419 96.25V83.25H4.381V96.25H3.419Z" fill="black" fill-opacity="0.2"/>
<path d="M667.419 96.25V83.25H668.381V96.25H667.419Z" fill="black" fill-opacity="0.2"/>
<path d="M3.419 112.25V99.25H4.381V112.25H3.419Z" fill="black" fill-opacity="0.2"/>
<path d="M667.419 112.25V99.25H668.381V112.25H667.419Z" fill="black" fill-opacity="0.2"/>
<path d="M3.419 128.25V115.25H4.381V128.25H3.419Z" fill="black" fill-opacity="0.2"/>
<path d="M667.419 128.25V115.25H668.381V128.25H667.419Z" fill="black" fill-opacity="0.2"/>
<path d="M3.419 144.25V131.25H4.381V144.25H3.419Z" fill="black" fill-opacity="0.2"/>
<path d="M667.419 144.25V131.25H668.381V144.25H667.419Z" fill="black" fill-opacity="0.2"/>
<path d="M3.419 160.25V147.25H4.381V160.25H3.419Z" fill="black" fill-opacity="0.2"/>
<path d="M667.419 160.25V147.25H668.381V160.25H667.419Z" fill="black" fill-opacity="0.2"/>
<path d="M3.419 176.25V163.25H4.381V176.25H3.419Z" fill="black" fill-opacity="0.2"/>
<path d="M667.419 176.25V163.25H668.381V176.25H667.419Z" fill="black" fill-opacity="0.2"/>
<path d="M3.419 192.25V179.25H4.381V192.25H3.419Z" fill="black" fill-opacity="0.2"/>
<path d="M667.419 192.25V179.25H668.381V192.25H667.419Z" fill="black" fill-opacity="0.2"/>
<path d="M3.419 208.25V195.25H4.381V208.25H3.419Z" fill="black" fill-opacity="0.2"/>
<path d="M667.419 208.25V195.25H668.381V208.25H667.419Z" fill="black" fill-opacity="0.2"/>
<path d="M3.419 224.25V211.25H4.381V224.25H3.419Z" fill="black" fill-opacity="0.2"/>
<path d="M667.419 224.25V211.25H668.381V224.25H667.419Z" fill="black" fill-opacity="0.2"/>
<path d="M3.419 240.25V227.25H4.381V240.25H3.419Z" fill="black" fill-opacity="0.2"/>
<path d="M667.419 240.25V227.25H668.381V240.25H667.419Z" fill="black" fill-opacity="0.2"/>
<path d="M3.419 256.25V243.25H4.381V256.25H3.419Z" fill="black" fill-opacity="0.2"/>
<path d="M667.419 256.25V243.25H668.381V256.25H667.419Z" fill="black" fill-opacity="0.2"/>
<path d="M3.419 272.25V259.25H4.381V272.25H3.419Z" fill="black" fill-opacity="0.2"/>
<path d="M667.419 272.25V259.25H668.381V272.25H667.419Z" fill="black" fill-opacity="0.2"/>
<path d="M3.419 288.25V275.25H4.381V288.25H3.419Z" fill="black" fill-opacity="0.2"/>
<path d="M667.419 288.25V275.25H668.381V288.25H667.419Z" fill="black" fill-opacity="0.2"/>
<path d="M3.419 304.25V291.25H4.381V304.25H3.419Z" fill="black" fill-opacity="0.2"/>
<path d="M667.419 304.25V291.25H668.381V304.25H667.419Z" fill="black" fill-opacity="0.2"/>
<path d="M3.419 320.25V307.25H4.381V320.25H3.419Z" fill="black" fill-opacity="0.2"/>
<path d="M667.419 320.25V307.25H668.381V320.25H667.419Z" fill="black" fill-opacity="0.2"/>
<path d="M3.419 336.25V323.25H4.381V336.25H3.419Z" fill="black" fill-opacity="0.2"/>
<path d="M667.419 336.25V323.25H668.381V336.25H667.419Z" fill="black" fill-opacity="0.2"/>
<path d="M3.419 352.25V339.25H4.381V352.25H3.419Z" fill="black" fill-opacity="0.2"/>
<path d="M667.419 352.25V339.25H668.381V352.25H667.419Z" fill="black" fill-opacity="0.2"/>
<path d="M3.419 368.25V355.25H4.381V368.25H3.419Z" fill="black" fill-opacity="0.2"/>
<path d="M667.419 368.25V355.25H668.381V368.25H667.419Z" fill="black" fill-opacity="0.2"/>
<path d="M3.419 384.25V371.25H4.381V384.25H3.419Z" fill="black" fill-opacity="0.2"/>
<path d="M667.419 384.25V371.25H668.381V384.25H667.419Z" fill="black" fill-opacity="0.2"/>
<path d="M3.419 400.25V387.25H4.381V400.25H3.419Z" fill="black" fill-opacity="0.2"/>
<path d="M667.419 400.25V387.25H668.381V400.25H667.419Z" fill="black" fill-opacity="0.2"/>
<path d="M3.419 416.25V403.25H4.381V416.25H3.419Z" fill="black" fill-opacity="0.2"/>
<path d="M667.419 416.25V403.25H668.381V416.25H667.419Z" fill="black" fill-opacity="0.2"/>
<path d="M3.419 432.25V419.25H4.381V432.25H3.419Z" fill="black" fill-opacity="0.2"/>
<path d="M667.419 432.25V419.25H668.381V432.25H667.419Z" fill="black" fill-opacity="0.2"/>
<path d="M3.419 448.25V435.25H4.381V448.25H3.419Z" fill="black" fill-opacity="0.2"/>
<path d="M667.419 448.25V435.25H668.381V448.25H667.419Z" fill="black" fill-opacity="0.2"/>
<path d="M3.419 464.25V451.25H4.381V464.25H3.419Z" fill="black" fill-opacity="0.2"/>
<path d="M667.419 464.25V451.25H668.381V464.25H667.419Z" fill="black" fill-opacity="0.2"/>
<path d="M3.419 480.25V467.25H4.381V480.25H3.419Z" fill="black" fill-opacity="0.2"/>
<path d="M667.419 480.25V467.25H668.381V480.25H667.419Z" fill="black" fill-opacity="0.2"/>
<path d="M1.105 489.113V488.307H6.695V489.113H1.105ZM8.89992 489.113V488.307H14.4899V489.113H8.89992ZM16.6948 489.113V488.307H22.2848V489.113H16.6948ZM24.4898 489.113V488.307H30.0798V489.113H24.4898ZM32.2847 489.113V488.307H37.8747V489.113H32.2847ZM40.0796 489.113V488.307H45.6696V489.113H40.0796ZM47.8745 489.113V488.307H53.4645V489.113H47.8745ZM55.6695 489.113V488.307H61.2595V489.113H55.6695ZM63.4644 489.113V488.307H69.0544V489.113H63.4644ZM71.2593 489.113V488.307H76.8493V489.113H71.2593ZM79.0542 489.113V488.307H84.6442V489.113H79.0542ZM86.8491 489.113V488.307H92.4391V489.113H86.8491ZM94.6441 489.113V488.307H100.234V489.113H94.6441ZM102.439 489.113V488.307H108.029V489.113H102.439ZM110.234 489.113V488.307H115.824V489.113H110.234ZM118.029 489.113V488.307H123.619V489.113H118.029ZM125.824 489.113V488.307H131.414V489.113H125.824ZM133.619 489.113V488.307H139.209V489.113H133.619ZM141.414 489.113V488.307H147.004V489.113H141.414ZM149.209 489.113V488.307H154.799V489.113H149.209ZM157.003 489.113V488.307H162.593V489.113H157.003ZM164.798 489.113V488.307H170.388V489.113H164.798ZM172.593 489.113V488.307H178.183V489.113H172.593ZM180.388 489.113V488.307H185.978V489.113H180.388ZM188.183 489.113V488.307H193.773V489.113H188.183ZM195.978 489.113V488.307H201.568V489.113H195.978ZM203.773 489.113V488.307H209.363V489.113H203.773ZM211.568 489.113V488.307H217.158V489.113H211.568ZM219.363 489.113V488.307H224.953V489.113H219.363ZM227.158 489.113V488.307H232.748V489.113H227.158ZM234.953 489.113V488.307H240.543V489.113H234.953ZM242.748 489.113V488.307H248.338V489.113H242.748ZM250.543 489.113V488.307H256.133V489.113H250.543ZM258.337 489.113V488.307H263.927V489.113H258.337ZM266.132 489.113V488.307H271.722V489.113H266.132ZM273.927 489.113V488.307H279.517V489.113H273.927ZM281.722 489.113V488.307H287.312V489.113H281.722ZM289.517 489.113V488.307H295.107V489.113H289.517ZM297.312 489.113V488.307H302.902V489.113H297.312ZM305.107 489.113V488.307H310.697V489.113H305.107ZM312.902 489.113V488.307H318.492V489.113H312.902ZM320.697 489.113V488.307H326.287V489.113H320.697ZM328.492 489.113V488.307H334.082V489.113H328.492ZM336.287 489.113V488.307H341.877V489.113H336.287ZM344.082 489.113V488.307H349.672V489.113H344.082ZM351.876 489.113V488.307H357.466V489.113H351.876ZM359.671 489.113V488.307H365.261V489.113H359.671ZM367.466 489.113V488.307H373.056V489.113H367.466ZM375.261 489.113V488.307H380.851V489.113H375.261ZM383.056 489.113V488.307H388.646V489.113H383.056ZM390.851 489.113V488.307H396.441V489.113H390.851ZM398.646 489.113V488.307H404.236V489.113H398.646ZM406.441 489.113V488.307H412.031V489.113H406.441ZM414.236 489.113V488.307H419.826V489.113H414.236ZM422.031 489.113V488.307H427.621V489.113H422.031ZM429.826 489.113V488.307H435.416V489.113H429.826ZM437.621 489.113V488.307H443.211V489.113H437.621ZM445.416 489.113V488.307H451.006V489.113H445.416ZM453.21 489.113V488.307H458.8V489.113H453.21ZM461.005 489.113V488.307H466.595V489.113H461.005ZM468.8 489.113V488.307H474.39V489.113H468.8ZM476.595 489.113V488.307H482.185V489.113H476.595ZM484.39 489.113V488.307H489.98V489.113H484.39ZM492.185 489.113V488.307H497.775V489.113H492.185ZM499.98 489.113V488.307H505.57V489.113H499.98ZM507.775 489.113V488.307H513.365V489.113H507.775ZM515.57 489.113V488.307H521.16V489.113H515.57ZM523.365 489.113V488.307H528.955V489.113H523.365ZM531.16 489.113V488.307H536.75V489.113H531.16ZM538.955 489.113V488.307H544.545V489.113H538.955ZM546.75 489.113V488.307H552.34V489.113H546.75ZM554.544 489.113V488.307H560.134V489.113H554.544ZM562.339 489.113V488.307H567.929V489.113H562.339ZM570.134 489.113V488.307H575.724V489.113H570.134ZM577.929 489.113V488.307H583.519V489.113H577.929ZM585.724 489.113V488.307H591.314V489.113H585.724ZM593.519 489.113V488.307H599.109V489.113H593.519ZM601.314 489.113V488.307H606.904V489.113H601.314ZM609.109 489.113V488.307H614.699V489.113H609.109ZM616.904 489.113V488.307H622.494V489.113H616.904ZM624.699 489.113V488.307H630.289V489.113H624.699ZM632.494 489.113V488.307H638.084V489.113H632.494ZM640.289 489.113V488.307H645.879V489.113H640.289ZM648.084 489.113V488.307H653.674V489.113H648.084ZM655.878 489.113V488.307H661.468V489.113H655.878ZM663.673 489.113V488.307H669.263V489.113H663.673Z" fill="black" fill-opacity="0.2"/>
</svg>
