<svg width="40" height="40" fill="none" xmlns="http://www.w3.org/2000/svg"><path class="color-svg" d="M38.81 18.263 21.78 1.236a2.512 2.512 0 0 0-3.552 0l-3.535 3.536 4.485 4.485a2.981 2.981 0 0 1 3.777 3.803l4.323 4.322a2.984 2.984 0 0 1 3.963 2.823 2.987 2.987 0 0 1-2.694 2.975 2.988 2.988 0 0 1-3.059-4.112l-4.031-4.032v10.61A2.989 2.989 0 1 1 19 25.558V14.85a2.988 2.988 0 0 1-1.622-3.92L12.956 6.51 1.281 18.184a2.512 2.512 0 0 0 0 3.553l17.028 17.027a2.512 2.512 0 0 0 3.552 0L38.81 21.816a2.514 2.514 0 0 0 0-3.553Z"/></svg>