<svg width="32" height="37" fill="none" xmlns="http://www.w3.org/2000/svg"><path class="color-svg" d="M3.139 33.151.25.75h31.743l-2.892 32.396-12.999 3.604L3.14 33.151Z"/><path d="M26.625 31.083 29.097 3.4H16.122v30.596l10.503-2.912Z" fill="#fff" fill-opacity=".4"/><path d="m6.873 15.416.356 3.974h8.893v-3.974h-9.25Zm-.355-4.069h9.604V7.373H6.157l.361 3.974Zm9.604 14.39-.018.005-4.426-1.195-.283-3.17H7.407l.557 6.24 8.14 2.26.019-.005v-4.135Z" class="logo"/><path d="M16.108 15.416v3.974H21l-.461 5.154-4.432 1.196v4.135l8.146-2.258.06-.672.934-10.462.097-1.067.717-8.043h-9.954v3.974h5.6l-.362 4.07h-5.238Z" class="logo"/></svg>