<svg width="36" height="36" fill="none" xmlns="http://www.w3.org/2000/svg"><path class="color-svg" d="M0 0h36v36H0V0Zm27.52 30.18c-1.668 0-2.612-.87-3.337-2.055l-2.75 1.597c.994 1.963 3.024 3.46 6.165 3.46 3.214 0 5.606-1.669 5.606-4.715 0-2.825-1.623-4.081-4.497-5.314l-.846-.362c-1.451-.629-2.08-1.04-2.08-2.054 0-.822.628-1.45 1.62-1.45.97 0 1.596.41 2.176 1.45l2.635-1.692c-1.115-1.96-2.661-2.708-4.812-2.708-3.021 0-4.954 1.931-4.954 4.468 0 2.754 1.622 4.057 4.063 5.097l.845.363c1.543.675 2.463 1.086 2.463 2.246 0 .968-.895 1.668-2.297 1.668Zm-13.11-.022c-1.162 0-1.646-.797-2.177-1.74l-2.754 1.667c.798 1.689 2.366 3.09 5.075 3.09 2.998 0 5.051-1.594 5.051-5.097V16.53h-3.383v11.503c0 1.69-.7 2.125-1.812 2.125Z"/></svg>